<?xml version="1.0" ?><svg id="Layer_1" style="enable-background:new 0 0 256 256;" version="1.1" viewBox="0 0 256 256" xml:space="preserve" xmlns="http://www.w3.org/2000/svg" xmlns:xlink="http://www.w3.org/1999/xlink"><style type="text/css">
	.st0{fill:#E5E8FF;}
	.st1{fill:#8C2F75;}
	.st2{fill:#E2BFD3;}
	.st3{fill:#FB748C;}
	.st4{fill:#FCBBA1;}
	.st5{fill:#9E6594;}
	.st6{fill:#FFFFFF;}
	.st7{fill:#F2F2F2;}
	.st8{fill:#E6E6E6;}
</style><g><path class="st0" d="M70.25,114.29h115.21c4.39,0,7.99,3.6,7.99,7.99v73.04c0,4.39-3.6,7.99-7.99,7.99H70.25   c-4.39,0-7.99-3.6-7.99-7.99v-73.04C62.26,117.89,65.86,114.29,70.25,114.29z"/><path class="st1" d="M188.03,208H72.25c-5.52,0-9.99-4.47-9.99-9.99v-73.73c0-5.52,4.47-9.99,9.99-9.99h115.9   c5.52,0,9.99,4.47,9.99,9.99v73.63C198.14,203.48,193.61,208,188.03,208L188.03,208z M66.95,124.97v72.35   c0,3.31,2.68,5.99,5.99,5.99h114.52c3.31,0,5.99-2.68,5.99-5.99v-72.35c0-3.31-2.68-5.99-5.99-5.99H72.94   C69.63,118.98,66.95,121.66,66.95,124.97z"/><path class="st0" d="M70.25,67.44h115.21c4.39,0,7.99,3.6,7.99,7.99v30.87c0,4.39-3.6,7.99-7.99,7.99H70.25   c-4.39,0-7.99-3.6-7.99-7.99V75.43C62.26,71.04,65.86,67.44,70.25,67.44z"/><path class="st1" d="M188.03,118.98H72.25c-5.52,0-9.99-4.47-9.99-9.99V77.43c0-5.52,4.47-9.99,9.99-9.99h115.9   c5.52,0,9.99,4.47,9.99,9.99v31.39C198.14,114.43,193.61,118.98,188.03,118.98L188.03,118.98z M66.95,78.12v30.18   c0,3.31,2.68,5.99,5.99,5.99h114.52c3.31,0,5.99-2.68,5.99-5.99V78.12c0-3.31-2.68-5.99-5.99-5.99H72.94   C69.63,72.13,66.95,74.81,66.95,78.12z"/><path class="st2" d="M75.85,139.4c0,7.92,6.42,14.34,14.34,14.34s14.34-6.42,14.34-14.34c0-7.92-6.42-14.34-14.34-14.34   S75.85,131.47,75.85,139.4C75.85,139.39,75.85,139.39,75.85,139.4L75.85,139.4z"/><path class="st1" d="M90.19,155.73c-9.03,0-16.34-7.31-16.34-16.34c0-9.03,7.31-16.34,16.34-16.34s16.34,7.31,16.34,16.34   C106.53,148.42,99.21,155.73,90.19,155.73L90.19,155.73z M90.19,127.05c-6.79,0-12.34,5.55-12.34,12.34   c0,6.79,5.55,12.34,12.34,12.34s12.34-5.55,12.34-12.34S96.98,127.05,90.19,127.05z"/><path class="st3" d="M113.8,139.4c0,10.69,11.93,18.6,23.2,11.12c3.09-2.05,4.91-5.57,4.91-9.28v-2.73c0-4.3-2.01-8.52-5.69-10.73   c-11.03-6.61-22.41,1.16-22.42,11.6C113.8,139.39,113.8,139.39,113.8,139.4z"/><path class="st1" d="M128.98,155.73c-9.03,0-16.34-7.31-16.34-16.34c0-9.03,7.31-16.34,16.34-16.34s16.34,7.31,16.34,16.34   C145.32,148.42,138,155.73,128.98,155.73z M128.98,127.05c-6.79,0-12.34,5.55-12.34,12.34c0,6.79,5.55,12.34,12.34,12.34   c6.79,0,12.34-5.55,12.34-12.34S135.77,127.05,128.98,127.05z"/><path class="st4" d="M75.85,176.87c0,7.92,6.42,14.34,14.34,14.34s14.34-6.42,14.34-14.34c0-7.92-6.42-14.34-14.34-14.34   S75.85,168.94,75.85,176.87C75.85,176.87,75.85,176.87,75.85,176.87L75.85,176.87z"/><path class="st1" d="M90.19,193.21c-9.03,0-16.34-7.31-16.34-16.34c0-9.03,7.31-16.34,16.34-16.34s16.34,7.31,16.34,16.34   C106.53,185.9,99.21,193.21,90.19,193.21L90.19,193.21z M90.19,164.52c-6.79,0-12.34,5.55-12.34,12.34   c0,6.79,5.55,12.34,12.34,12.34s12.34-5.55,12.34-12.34C102.53,170.08,96.98,164.52,90.19,164.52z"/><path class="st5" d="M113.8,176.87c0,10.67,11.87,18.56,23.12,11.18c3.15-2.07,4.99-5.66,4.99-9.43v-2.59   c0-4.33-2.02-8.58-5.73-10.8c-11.02-6.57-22.37,1.2-22.38,11.63C113.8,176.86,113.8,176.86,113.8,176.87z"/><path class="st1" d="M128.98,193.21c-9.03,0-16.34-7.31-16.34-16.34c0-9.03,7.31-16.34,16.34-16.34s16.34,7.31,16.34,16.34   C145.32,185.9,138,193.21,128.98,193.21z M128.98,164.52c-6.79,0-12.34,5.55-12.34,12.34c0,6.79,5.55,12.34,12.34,12.34   c6.79,0,12.34-5.55,12.34-12.34C141.32,170.08,135.77,164.52,128.98,164.52z"/><path class="st6" d="M94.77,104.92H79.62c-4.39,0-7.99-3.6-7.99-7.99V84.8c0-4.39,3.6-7.99,7.99-7.99h69.42L94.77,104.92z"/><path class="st7" d="M179.4,76.81h4.69v28.11h-4.69V76.81z"/><path class="st6" d="M176.79,155.73l7.79-17.94c0.28-0.68,0.44-1.44,0.36-2.2c-0.64-7.71-7.27-13.74-15.3-13.74   s-14.66,6.07-15.3,13.74c-0.08,0.76,0.08,1.52,0.36,2.2l7.79,17.94"/><path class="st8" d="M169.64,127.13c7.87,0,14.34,5.79,15.26,13.26c0.08-0.4,0.08-0.76,0.04-1.16c-0.64-7.71-7.27-13.74-15.3-13.74   s-14.66,6.07-15.3,13.74c-0.04,0.4-0.04,0.76,0.04,1.16C155.3,132.92,161.77,127.13,169.64,127.13L169.64,127.13z"/><path class="st1" d="M178.11,161.15h-16.94l-8.31-19.53c-0.44-1-0.64-2.12-0.52-3.24c0.6-8.51,7.47-15.38,16.02-16.02   c4.63-0.36,9.11,1.12,12.62,4.15c3.64,3.14,5.73,7.52,5.98,12.35c0.05,0.95-0.18,1.91-0.55,2.79L178.11,161.15z M163.86,156.46   h12.33l7.68-17.14c0.21-0.4,0.25-0.88,0.21-1.28v-0.08c-0.25-3.56-1.98-6.79-4.81-9.15c-2.83-2.36-6.5-3.48-10.26-3.2   c-6.96,0.48-12.58,5.79-13.04,12.34v0.08c-0.04,0.44,0.04,0.88,0.21,1.24L163.86,156.46L163.86,156.46z"/><path class="st1" d="M169.64,159.41c-1.12,0-2-0.88-4.3-2v-11.23c2.31-1.12,3.19-2,4.3-2s2,0.88,0.38,2v11.23   C171.64,158.53,170.76,159.41,169.64,159.41z"/><path class="st0" d="M162.81,156.46h9.75c1.17,0,2.15,0.93,2.15,2.02v29.39c0,3.36-2.9,6.07-6.46,6.07h-1.14   c-3.56,0-6.46-2.71-6.46-6.07v-29.39C160.65,157.39,161.63,156.46,162.81,156.46z"/><path class="st1" d="M170.62,198.63h-1.18c-4.86,0-8.78-3.7-8.78-8.22v-29.84c0-2.26,1.92-4.11,4.29-4.11h10.17   c2.37,0,4.29,1.85,4.29,4.11v29.84C179.4,194.93,175.44,198.63,170.62,198.63L170.62,198.63z M165.34,161.23v28.75   c0,2.18,1.88,3.97,4.16,3.97h1.05c2.28,0,4.16-1.79,4.16-3.97v-28.75c-0.04-0.04-0.07-0.08-0.18-0.08h-9.01   C165.45,161.15,165.38,161.19,165.34,161.23L165.34,161.23z"/><path class="st6" d="M170.03,161.15h-4.69v4.69h4.69V161.15z"/><path class="st6" d="M170.03,170.52h-4.69v14.06h4.69V170.52z"/><path class="st1" d="M178.78,109.61H81.62c-5.52,0-9.99-4.47-9.99-9.99V86.8c0-5.52,4.47-9.99,9.99-9.99h97.16   c5.52,0,9.99,4.47,9.99,9.99v12.82C188.77,105.14,184.3,109.61,178.78,109.61z M82.24,76.81c-3.28,0-5.92,2.89-5.92,6.48v15.64   c0,3.31,2.68,5.99,5.99,5.99h95.78c3.31,0,5.99-2.68,5.99-5.99V82.8c0-3.31-2.68-5.99-5.99-5.99H82.24L82.24,76.81z"/><path class="st1" d="M175.24,170.52h-11.23c-1.12-0.48-2-1.36-2-2.48c0-1.12,0.88-2,2-2.21h11.23c1.12,0.21,2,1.09,2,2.21   C177.23,169.16,176.36,170.04,175.24,170.52z"/></g></svg>